<?xml version="1.0" encoding="utf-8"?>
<!-- Generator: Adobe Illustrator 26.0.3, SVG Export Plug-In . SVG Version: 6.00 Build 0)  -->
<svg version="1.0" id="Layer_1" xmlns="http://www.w3.org/2000/svg" xmlns:xlink="http://www.w3.org/1999/xlink" x="0px" y="0px"
	 viewBox="0 0 770 598" style="enable-background:new 0 0 770 598;" xml:space="preserve">
<style type="text/css">
	.st0{fill:#D21D25;}
</style>
<g id="svgg">
	<path id="path0" class="st0" d="M364.6,168.7c-85.5,5.8-146.8,46.5-144.8,96.2c2.8,71.2,132,115.2,237.1,80.7
		c89-29.2,109.3-100.2,41.7-145.5C465.3,177.9,412.2,165.4,364.6,168.7 M299.1,200.4c43.4,4.7,75.8,28.7,81,59.9
		c3.4,20.8-8.9,43.7-26.1,48.2c-7.8,2-16.5-1.7-16.5-7.1c0-2.6,1.3-3.4,6.4-3.6c9-0.5,12.9-4.3,13-12.7c0-7.4-4.8-12-14.8-14.2
		c-4.9-1-19.8-1-21.1,0.1c-0.3,0.3-0.4,4.7-0.4,27.4v27.1l-21.7-0.1l-21.7-0.1v-62.6v-62.6l1-0.2C279.9,199.6,294.7,200,299.1,200.4
		 M483.5,199.9l1.5,0.2v62.7v62.7l-21.7-0.1l-21.7-0.1l-0.1-27.3l-0.1-27.3l-1.4-0.3c-3.3-0.6-16.7-0.4-19.9,0.3
		c-10.7,2.3-15.8,8-14.7,16.2c0.9,7.1,4.8,10.2,13,10.7c6.7,0.4,8.7,3.6,4.6,7.5c-9.3,9.1-27.1,1.4-36-15.4
		c-14.7-28,0.9-61.6,36.4-78.6c13.4-6.4,29.5-10.4,46-11.4C472.5,199.7,482,199.7,483.5,199.9 M334.6,232.3
		c-1.9,0.7-0.1,2.7,3.4,3.8c4.4,1.3,6.4-0.9,2.6-2.9C338.4,232.1,336.1,231.7,334.6,232.3 M424.7,232.1c-5,1.1-7.2,4.3-3,4.3
		c2.8,0,7.1-2.3,6.6-3.5C428,232.1,426.4,231.8,424.7,232.1 M332.8,258c-0.1,0.2-0.1,2.2-0.1,4.4l0.1,4.1l17,0.1
		c11,0,16.8,0,16.5-0.2s-3.2-1-6.5-1.8c-10.8-2.8-21.5-5.5-23.8-6.1c-1.2-0.3-2.4-0.6-2.6-0.7C333.1,257.7,332.9,257.8,332.8,258
		 M425.9,258.5c-16.2,4.1-30.6,7.9-30.7,8.1c-0.1,0.1,7.6,0.1,17,0.1h17.1v-4.4C429.3,257.2,429.6,257.5,425.9,258.5 M61.1,368.9
		c-0.1,0.1-0.6,2.3-1.2,4.9c-4.7,21.2-9.1,38.9-12.5,49.6c-0.7,2.3-1.4,4.5-1.5,4.7c-0.1,0.5,0.3,0.5,7.1,0.5c8.1,0,7.6,0.2,8.1-2.4
		c1.2-6.9,8.6-37.2,9-36.8c0.3,0.3,2,24,2.3,34.1l0.2,4.9l8.6,0.1l8.6,0.1l1-2.2c1.4-3.2,17.8-36,18-36c0.4,0-5,27.9-6.4,33.3
		c-0.5,1.8-0.9,3.6-1,4l-0.1,0.8h7.2h7.2l0.2-0.6c0.1-0.3,0.5-2.4,0.7-4.4c0.5-3.7,8.9-47,10.1-51.5c0.9-3.8,2.1-3.3-9.8-3.3
		c-5.7,0-10.5,0.1-10.7,0.2s-1.1,1.9-2,3.9s-3.3,6.8-5.2,10.6c-1.9,3.8-5.6,11.1-8.3,16.2c-2.6,5.1-4.8,9.4-4.8,9.4
		c-0.3,0.4-0.5-0.9-0.9-6.4c-0.2-3.4-0.7-11.4-1.1-17.7c-0.4-6.4-0.7-12.6-0.8-13.8l-0.1-2.3l-10.9-0.1
		C66.2,368.7,61.2,368.8,61.1,368.9 M219.7,369.2c-0.1,0.3-0.3,1.1-0.5,1.8c-1.9,12.7-6.6,35.6-10.2,49.8c-1,4-1.8,7.4-1.8,7.6
		c0,0.3,14.6,0.3,14.8,0c0.1-0.1,0.6-2.9,1.2-6.1c4-22.8,7.8-29.5,17.1-29.5c6.9,0,6.9,3.7,0.3,30.8c-0.6,2.5-1.1,4.7-1,4.9
		c0.2,0.3,14.4,0.3,14.6,0c0.1-0.1,0.6-2.9,1.2-6.1s1.8-9.9,2.8-14.9c3.2-15.9,3.1-18.8-0.2-22.4c-4.5-4.9-17.6-5.6-25.3-1.3
		c-1,0.5-1.9,0.9-1.9,0.8c-0.2-0.2,1-5.4,2.4-11.1c0.6-2.3,1-4.3,1-4.4C233.9,368.4,220,368.6,219.7,369.2 M431.9,369
		c-0.2,0.2-0.4,1.2-0.6,2.3c-0.4,2.4-2.2,12-3.6,18.8c-2.3,11.6-6.4,29.2-8.1,35.1c-0.4,1.4-0.7,2.7-0.7,2.9c0,0.3,1.3,0.4,7.9,0.4
		h7.9l0.3-1.8c0.2-1,0.4-2.8,0.6-4c0.7-4.8,3.5-18.1,4-18.7c0.2-0.3,2.5-0.4,11.8-0.3c6.3,0,11.6,0,11.7-0.1s2.3-10.4,2.6-12.1
		l0.2-1l-11.8,0.1c-6.5,0.1-11.8,0-11.8-0.1c0-0.4,0.9-4.5,1.5-6.6l0.6-2.4l13.1,0.1c7.2,0,13.2,0,13.3-0.1c0.1-0.1,0.4-1.2,0.7-2.4
		c0.2-1.2,0.8-3.8,1.2-5.9c0.4-2,0.7-3.9,0.6-4.2C473.1,368.5,432.4,368.4,431.9,369 M477.6,368.9c-0.2,0.2-0.7,1.7-1.2,3.9
		c-0.4,2-1,4.6-1.2,5.8c-0.3,1.2-0.4,2.4-0.3,2.6c0.2,0.5,13.9,0.6,14.1,0.1c0.1-0.1,0.5-1.8,0.9-3.7c0.4-1.9,0.9-4.6,1.2-6
		c0.3-1.4,0.5-2.6,0.4-2.8S478.1,368.6,477.6,368.9 M199.1,373.2c-2.4,0.4-5.3,1-6.4,1.2l-2,0.4l-0.4,1.7c-0.2,0.9-0.6,2.5-0.8,3.5
		l-0.5,1.8l-3.1,0.1c-3.8,0.1-3.3-0.5-4.6,5.8s-1.5,5.8,1.8,5.8c1.5,0,2.7,0.1,2.8,0.2c0.2,0.3-3.1,15.2-4.5,20.8
		c-2.8,11,0,14.8,11,15.1c4.3,0.1,10.1-0.4,10.6-1c0.2-0.2,2-5.1,4.2-11.4c0.5-1.4,0.6-1.4-3.3-0.5c-6,1.5-8,1.1-7.9-1.6
		c0-1.2,1.5-8.1,3.8-18.6l0.6-2.8l5.3-0.1l5.3-0.1l0.3-1.1c0.5-1.9,2-9.2,2-9.9c0-0.6,0-0.6-4.9-0.6h-4.9v-0.6
		c0-0.4,0.4-2.4,0.8-4.4c0.5-2.1,0.8-4,0.8-4.2C205.3,372.2,204.1,372.3,199.1,373.2 M385.2,373.5c-7.2,1.3-7.3,1.3-7.3,1.9
		c0,0.2-0.3,1.5-0.6,2.9c-0.3,1.3-0.6,2.7-0.7,3.1c-0.1,0.6-0.3,0.6-3.2,0.6c-3.7,0-3.4-0.5-4.6,5.7c-1.4,6.6-1.6,5.9,1.8,5.9h2.9
		l-0.2,1.1c-0.5,2.7-2.9,13.8-4.3,19.4c-2.5,10.2-0.8,14,6.8,15.4c3.5,0.7,13.9,0,14.8-0.9c0.3-0.4,4.7-12.4,4.5-12.5
		c0,0-1.6,0.3-3.4,0.8c-6,1.5-8.1,1.1-8.1-1.5c0-0.9,2.7-14,4.4-21c0.1-0.6,0.2-0.6,5.4-0.7l5.3-0.1l0.2-0.8
		c0.7-2.5,2.2-10.1,2.1-10.3c-0.1-0.1-2.4-0.3-5.1-0.3s-4.9-0.1-4.9-0.2s0.4-2.1,0.8-4.3c0.5-2.3,0.8-4.3,0.8-4.6
		C392.6,372.2,392.1,372.2,385.2,373.5 M565.1,380.8c-7,0.6-13,2-13.4,3.2c-2,6.5-3.7,12.7-3.6,12.8c0.1,0.1,1.5-0.4,3.1-1.1
		c10.9-4.6,20.1-5.2,19.3-1.2c-0.4,1.9-2.5,2.9-12.7,5.7c-12,3.3-15.9,6-17.9,12.7c-3.5,11.2,4.1,18.6,16.8,16.4
		c4.4-0.8,4.4-0.8,5.3-2.9c2-4.4,3.1-6.7,3.2-6.2c0.1,0.6-0.9,4.6-1.6,6.5c-0.7,2-1,1.9,7.2,1.9c8.6,0,7.8,0.3,8.3-3.2
		c0.2-1.2,0.7-3.8,1-5.6c0.4-1.9,1.5-7.1,2.4-11.7s2-9.6,2.3-11.2C587.3,384.1,581.6,379.5,565.1,380.8 M285.6,381.4
		c-13.8,2.9-22.7,14.8-22.7,30.1c0,11.9,7,18.2,20.1,18.2c16.9,0,28.4-11.4,29.5-29.4C313.4,386.1,301.9,378,285.6,381.4
		 M337.5,381.4c-14,3.1-22.6,14.4-22.7,29.8c-0.1,12.7,7,18.9,21.2,18.4c14.1-0.5,23.6-8.2,27.3-22.2c3.4-13-0.7-22.5-11.2-25.7
		C348.9,380.8,341.2,380.6,337.5,381.4 M516.8,381.5c-2.9,0.8-3.9,1.2-6,2.4l-1.5,0.9l0.1-1.4l0.1-1.4l-6.7-0.1
		c-7.9-0.1-7-0.7-8,5.3c-1.5,9.2-4.3,22.1-7.1,33.4c-1,4-1.8,7.4-1.8,7.6c0,0.4,14.6,0.4,14.8,0.1c0.1-0.1,0.4-1.9,0.7-3.9
		c3.8-23.8,7.8-31.3,16.9-31.7c6.4-0.2,7.1,2,4.4,14.9c-1.2,5.7-1.8,8.4-3.8,16.9c-0.5,1.9-0.8,3.6-0.7,3.7c0.2,0.3,14.4,0.3,14.6,0
		c0.1-0.1,0.4-1.9,0.7-3.9c0.7-4.1,1.2-7.1,3.7-19.5c2.7-13.8,2.5-17.3-1.3-20.6C532.4,381.1,523.2,379.8,516.8,381.5 M615,381.5
		c-2.5,0.7-4.1,1.3-6.1,2.6c-1.2,0.8-1.3,0.7-1.2-0.9l0.1-1.3H601c-4.1,0-6.9,0.1-7,0.3c-0.1,0.2-0.6,2.5-1,5.3
		c-1.7,9.9-4.8,24.4-7.4,34.7c-0.8,3.3-1.5,6-1.4,6.1s3.4,0.2,7.5,0.2h7.3l0.1-0.6c0.1-0.3,0.4-2.3,0.7-4.3
		c3.5-22.4,7.8-30.5,16.5-30.9c7.8-0.3,7.9,2.5,1.1,30.7c-0.5,2.2-1,4.3-1,4.6c0,0.5,0.3,0.5,7.2,0.5c8.3,0,7.5,0.3,8.1-3.2
		c0.5-3,3.1-17.2,4.4-23.3c2.9-13.8,0.8-18.8-8.7-20.8C624.4,380.6,618.2,380.7,615,381.5 M663.2,381.2c-12.2,2.2-20,10.4-22.7,23.7
		c-3.9,19.5,9.2,29.3,30.6,23l1.3-0.4l2.1-6.3c1.1-3.5,2.1-6.5,2.1-6.6c0-0.3-1.3-0.1-5.2,0.9c-13.2,3.5-19.2-0.5-16.5-11
		c2.5-9.5,9.3-12.8,20.4-10c2.3,0.6,4.2,1,4.3,0.9c0.2-0.2,2.1-11.1,2.1-12.2C681.6,381.7,668.4,380.3,663.2,381.2 M702.5,381.2
		c-12.2,2.4-20.7,12-22.8,25.6c-2.6,17.2,7.7,25.6,27.2,22.1c6.4-1.2,6-1,6.9-3.5c0.4-1.1,1.6-4.2,2.6-6.9c2.1-5.5,2.2-5.3-1.4-3.9
		c-7.4,3-15.6,3.1-18.7,0.3c-1.5-1.4-2.4-5.8-1.5-7.2c0.2-0.3,3.4-0.4,13.8-0.4l13.5-0.1l0.8-3.1
		C727.2,387.8,718.4,378.1,702.5,381.2 M131.7,382.3c-0.1,0.2-0.4,2.3-0.8,4.6c-0.7,4.6-1.5,8.7-3.3,17.4
		c-2.7,13.3-2.8,16.2-0.7,19.9c3.6,6.1,17.1,7.6,26.1,2.8l2.4-1.3l-0.1,1.4l-0.1,1.4h6.9h6.9l0.5-3c2-11.7,4.6-24.6,7.3-35.1
		c1.1-4.3,2-8,2-8.1c0-0.2-2.6-0.3-7.4-0.3H164l-0.3,0.6c-0.1,0.3-0.5,2.2-0.7,4c-3,21.6-7.8,30.7-16.4,31.2
		c-7.8,0.4-8-3.5-1.1-31.4c0.5-2.2,0.9-4,0.8-4.2C146.1,381.8,131.8,381.9,131.7,382.3 M474.5,384.4c-0.3,0.1-0.5,0.2-0.5,0.3
		c0,2.5-5.7,29.7-8.3,40c-0.5,2-0.9,3.7-0.8,3.7c0.2,0.2,15,0.2,15-0.1c0-1.3,5-27,6.9-35.8c1.7-7.6,1.7-7.8,1.2-8.1
		C487.7,384.2,475.4,384.2,474.5,384.4 M707.9,392.6c1.1,0.6,2,2,2,3.4v0.9H704c-6.7,0-6.7,0-4.9-2
		C701.2,392.5,705.4,391.4,707.9,392.6 M293.4,393.4c3.6,1.1,4.9,5,3.7,11.4c-1.5,8.3-5.7,12.7-12,12.7c-5.7,0-8.1-3.4-7.2-10.2
		C279.3,396.8,285.6,391.1,293.4,393.4 M345,393.4c3.3,1,4.2,2.6,4.2,7.5c-0.1,10.3-4.7,16.5-12.3,16.5c-5.5,0-7.5-2.1-7.4-7.8
		C329.7,398.4,336.7,390.9,345,393.4 M567.9,409c-0.1,0.3-0.4,1.7-0.8,3.2c-0.3,1.5-0.7,3-0.8,3.4c-0.2,0.6-0.6,0.8-3.7,1.6
		c-5.9,1.5-8.9,1.1-8.8-1.4c0.1-2.6,1.1-3.3,8.4-5.6C568,408.3,568.1,408.3,567.9,409"/>
</g>
</svg>
